<svg width="766" height="807" viewBox="0 0 766 807" fill="none" xmlns="http://www.w3.org/2000/svg">
<path d="M317.565 178.455C323.669 211.351 295.814 274.456 311.022 295.215L185.674 354.111C156.631 320.807 148.883 236.526 162.767 220.075C189.501 253.221 188.741 247.369 190.132 243.984C152.986 176.488 218.675 114.86 215.261 130.866C211.847 146.872 238.137 169.548 233.834 164.614C229.532 159.68 234.208 125.201 249.798 100.747C264.471 72.751 301.446 57.8782 310.682 58.5094C307.426 72.2064 309.935 137.335 317.565 178.455Z" fill="#1DA1F2"/>
<path d="M320.018 240.192C322.414 268.08 344.946 312.104 355.912 330.63L182.716 356.585C161.255 326.484 174.828 274.766 187.732 262.203C207.284 291.984 207.129 287.05 208.563 284.345C183.148 225.113 242.875 179.165 238.725 192.213C234.576 205.261 254.613 226.288 251.433 221.829C248.254 217.37 254.963 189.044 269.941 169.956C284.444 147.845 316.445 138.481 324.084 139.761C320.254 150.9 317.024 205.332 320.018 240.192Z" fill="#82CFFF"/>
<path d="M544.618 286.046C513.825 303.718 481.942 369.609 454.706 371.578L493.228 513.408C540.116 514.004 613.589 462.347 617.349 439.816C572.175 440.978 577.429 437.571 579.21 434.12C659.314 417.77 664.001 322.301 653.406 336.061C642.81 349.822 606.407 344.148 613.353 344.237C620.3 344.325 644.965 316.849 654.024 287.437C666.577 256.333 653.192 216.214 646.334 209.18C637.497 221.226 583.11 263.956 544.618 286.046Z" fill="#1DA1F2"/>
<path d="M501.351 307.148C475.876 322.423 424.007 330.409 401.256 332.493L486.592 497.586C525.822 497.334 561.865 453.512 564.649 434.605C526.882 436.301 531.222 433.367 532.657 430.452C599.398 415.493 601.79 335.562 593.148 347.242C584.505 358.921 553.965 354.759 559.777 354.721C565.588 354.684 585.78 331.306 592.886 306.559C602.888 280.341 591.05 246.998 585.201 241.224C578.001 251.441 533.194 288.054 501.351 307.148Z" fill="#82CFFF"/>
<path d="M331.591 218.986L497.564 117.23L518.321 521.676L273.19 536.461L152.676 325.981L331.591 218.986Z" fill="#55B8F5"/>
<path d="M181.247 708.252L141.71 346.47L262.224 556.95L507.355 542.165L181.247 708.252Z" fill="#55B8F5"/>
</svg>
